<svg xmlns="http://www.w3.org/2000/svg" version="1.1" viewBox="0 0 581.98 744.96"><g fill="#000"><path d="M537.633 22.474c-14.575-9.86-28.91-16.59-43.257-22.385l-15.403 21.197L566.58 84.95l15.403-21.209c-15.043-18.498-29.774-31.417-44.35-41.266zm-68.569 12.452L453.65 56.135l87.607 63.65L556.66 98.59zm-26.63 36.66L234.481 357.738l47.625 15.475L482.86 100.868zm48.979 36.143-199.65 271.782 27.015 42.43 211.25-286.705zM229.156 369.998l-22.588 114.274 99.854-55.074-28.358-42.286z" color="#000"/><path d="M87.304 36.51A87.247 87.247 0 0 0-.04 123.851v534.194c0 48.32 39.035 86.971 87.343 86.971h356.88c48.308 0 87.343-38.651 87.343-86.971V240.057L478.3 312.033v325.764c0 29.774-23.848 53.982-53.622 53.982H106.785c-29.75 0-53.598-24.208-53.598-53.982V143.705a53.406 53.406 0 0 1 53.61-53.61h253.44l34.092-53.598z"/></g></svg>